<svg xmlns="http://www.w3.org/2000/svg" width="92.069" height="29.86" viewBox="0 0 92.069 29.86"><defs><style>.a{fill:#fff;}</style></defs><g transform="translate(0)"><g transform="translate(28.636 3.36)"><path class="a" d="M92.664,12.772a1.646,1.646,0,0,1-1.632,1.664A1.667,1.667,0,0,1,89.4,12.772v-.64A1.639,1.639,0,0,1,91.032,10.5a1.619,1.619,0,0,1,1.632,1.632Zm0,5.473V29.991a1.619,1.619,0,0,1-1.632,1.632A1.639,1.639,0,0,1,89.4,29.991V18.245a1.626,1.626,0,0,1,1.632-1.664A1.607,1.607,0,0,1,92.664,18.245Z" transform="translate(-89.4 -10.5)"/><path class="a" d="M107.363,40.154a1.6,1.6,0,0,1,2.272-.256,5.431,5.431,0,0,0,3.328,1.312,3.875,3.875,0,0,0,2.048-.576,1.258,1.258,0,0,0,.544-.9.345.345,0,0,0-.1-.288.827.827,0,0,0-.384-.352,6.763,6.763,0,0,0-2.4-.832h-.032a13.18,13.18,0,0,1-2.624-.768,4.97,4.97,0,0,1-2.08-1.76,3.79,3.79,0,0,1-.512-1.888,4.226,4.226,0,0,1,1.792-3.328,6.364,6.364,0,0,1,3.713-1.12,7.647,7.647,0,0,1,4.513,1.664,1.665,1.665,0,0,1,.48,2.24,1.592,1.592,0,0,1-2.24.416A5.057,5.057,0,0,0,112.9,32.6a3.056,3.056,0,0,0-1.792.544.913.913,0,0,0-.48.7.345.345,0,0,0,.064.256.715.715,0,0,0,.32.288,6.672,6.672,0,0,0,2.208.736l.032.032h.032a11.983,11.983,0,0,1,2.816.864,4.612,4.612,0,0,1,2.144,1.792,3.969,3.969,0,0,1,.576,1.984,4.3,4.3,0,0,1-1.888,3.489,6.732,6.732,0,0,1-3.9,1.216,8.893,8.893,0,0,1-5.377-2.08A1.6,1.6,0,0,1,107.363,40.154Z" transform="translate(-101.378 -23.351)"/><path class="a" d="M149.4,36.953a7.65,7.65,0,0,1,7.649-7.553,8.064,8.064,0,0,1,4.8,1.664,1.657,1.657,0,0,1,.32,2.24,1.6,1.6,0,0,1-2.272.288,4.764,4.764,0,0,0-2.848-.96,4.338,4.338,0,1,0,0,8.673,4.764,4.764,0,0,0,2.848-.96,1.673,1.673,0,0,1,2.272.32,1.7,1.7,0,0,1-.32,2.24,8.3,8.3,0,0,1-4.8,1.6A7.692,7.692,0,0,1,149.4,36.953Z" transform="translate(-130.197 -23.351)"/><path class="a" d="M207.466,36.813v5.6a7.267,7.267,0,0,1-7.233,7.233,6.626,6.626,0,0,1-3.168-.768,1.618,1.618,0,0,1-.736-2.176,1.658,1.658,0,0,1,2.176-.768,3.826,3.826,0,0,0,1.728.416,4.015,4.015,0,0,0,3.937-3.232,6.9,6.9,0,0,1-9.057-1.088A7.606,7.606,0,0,1,193,36.717a7.915,7.915,0,0,1,2.112-5.377,7.162,7.162,0,0,1,5.121-2.24,6.734,6.734,0,0,1,4.033,1.28,1.618,1.618,0,0,1,3.2.32v6.113Zm-3.232-.032a4.638,4.638,0,0,0-1.152-3.072,3.768,3.768,0,0,0-2.848-1.28,3.685,3.685,0,0,0-2.784,1.28,4.382,4.382,0,0,0-1.216,3.072,4.292,4.292,0,0,0,1.216,3.1,3.766,3.766,0,0,0,2.784,1.248,3.69,3.69,0,0,0,2.848-1.248A4.477,4.477,0,0,0,204.234,36.781Z" transform="translate(-159.843 -23.147)"/><path class="a" d="M244.68,42.2a7.582,7.582,0,0,1-2.08-5.313,7.707,7.707,0,0,1,2.08-5.281,7.063,7.063,0,0,1,5.185-2.3,6.556,6.556,0,0,1,5.025,2.3A7.592,7.592,0,0,1,257,36.885,7.39,7.39,0,0,1,254.89,42.2a6.716,6.716,0,0,1-5.025,2.3A7.063,7.063,0,0,1,244.68,42.2Zm1.184-5.313a4.9,4.9,0,0,0,1.088,3.2,4.065,4.065,0,0,0,2.88,1.12,3.947,3.947,0,0,0,2.784-1.12,4.536,4.536,0,0,0,1.184-3.2,4.488,4.488,0,0,0-1.184-3.136,4.057,4.057,0,0,0-5.665,0A4.966,4.966,0,0,0,245.864,36.885Z" transform="translate(-193.569 -23.283)"/></g><g transform="translate(0 0.208)"><path class="a" d="M.429,3.482a1.606,1.606,0,0,1,0-2.336A1.7,1.7,0,0,1,2.8,1.113L24.561,22.877a1.671,1.671,0,0,1-.032,2.368,1.606,1.606,0,0,1-2.336,0Z" transform="translate(0.075 -0.649)"/></g><g transform="translate(21.755)"><path class="a" d="M71.26,20.739V1.664A1.68,1.68,0,0,0,69.564,0,1.653,1.653,0,0,0,67.9,1.664V17.411Z" transform="translate(-67.9)"/></g></g></svg>