<svg xmlns="http://www.w3.org/2000/svg" width="14.328" height="14.328" viewBox="0 0 14.328 14.328"><defs><style>.a{fill:#fff;}</style></defs><path class="a" d="M203.723,134.838v.651a.314.314,0,0,1-.326.326h-3.582V139.4a.314.314,0,0,1-.326.326h-.651a.314.314,0,0,1-.326-.326v-3.582h-3.582a.314.314,0,0,1-.326-.326v-.651a.314.314,0,0,1,.326-.326h3.582v-3.582a.314.314,0,0,1,.326-.326h.651a.314.314,0,0,1,.326.326v3.582H203.4a.314.314,0,0,1,.326.326Zm1.3,4.559v-8.466A1.633,1.633,0,0,0,203.4,129.3h-8.466a1.633,1.633,0,0,0-1.628,1.628V139.4a1.633,1.633,0,0,0,1.628,1.628H203.4a1.633,1.633,0,0,0,1.628-1.628Zm1.3-8.466V139.4a2.936,2.936,0,0,1-2.931,2.931h-8.466A2.936,2.936,0,0,1,192,139.4v-8.466A2.936,2.936,0,0,1,194.931,128H203.4a2.936,2.936,0,0,1,2.931,2.931Z" transform="translate(-192 -128)"/></svg>